<svg id="Livello_1" data-name="Livello 1" xmlns="http://www.w3.org/2000/svg" viewBox="0 0 110.27 499.19"><defs><style>.cls-1,.cls-2{fill:#727d8b;}.cls-2{fill-rule:evenodd;}.cls-3{fill:#2f476d;}</style></defs><path class="cls-1" d="M45.22,113.12c2.62,3.86,1.3,4.55,4,10.38.51,1.12-.21,5.18.3,6.52,1.08,2.77,3.38,3.18,4.32,7,9.76,5.67,14.56,8.07,19,5.93.08-2.36-4-5-4.47-6.08-2.26-2.46-5.93-5.16.15-7.64,5-2,16.07-4.84,35.09-3.12-4.34-5.75-17.11-8.81-28.88-9.55-2.1-.13-7.63-2.62-9.31-2.7-2.92-.13-5.41,3.39-6.31,3.3-4.37-.41-8.3-7.66-13.31-9.35C41.92,106.47,42.6,109.26,45.22,113.12Z"/><path class="cls-2" d="M51.57,85.12a5,5,0,0,0,1.64.67,41.57,41.57,0,0,1,10.92,4.92,63.68,63.68,0,0,1,5.11,4c1.68,1.41,3.68,2.29,5.27,3.83-1.12,1-3,1-3.76,2.4-.61,1.19.06,1.92.41,2.83.15.39.06.81.39,1.07,1.33.26,1.8-1.28,3-1.76a17.33,17.33,0,0,1,5.62-.78,5.71,5.71,0,0,0,3.35-1.44c.61-.46,1.1-1.07,1.61-1.41.24-.15.65-.27,1-.44a7.7,7.7,0,0,1,.83-.49c.38-.13.74-.12.94-.29A1.62,1.62,0,0,0,88,96.35c-.29-.38-.83-.37-1.28-.62s-.76-.73-1.17-1a3,3,0,0,1,.6-2.58,46.12,46.12,0,0,1,4.42-7A8.94,8.94,0,0,1,92.92,83c.52-.25,1.24-.12,1.36-.77a.88.88,0,0,0-.65-1.06,6.47,6.47,0,0,0-.84.18,9.33,9.33,0,0,0-3.2.68c-2.1,1-4,3.8-5.5,5.81a31.15,31.15,0,0,1-2.59,3.08c-.77.8-2.28,2.28-3.33,2.3-.84,0-2.23-1.22-2.87-1.62a50.35,50.35,0,0,0-9-4.31,40.22,40.22,0,0,0-12.93-2.43C52.82,84.8,52.05,84.56,51.57,85.12Z"/><path class="cls-3" d="M15.94,58s-.94-4,.79-6.53c-1.55-4.54-2.6-7.24-.85-9s1.45-2.9,2.74-10.56S22.19,16.1,25.76,9.79,33-1.35,34.07.34s-2,6.86-2,6.86S36.52,0,38.21,1.48s-2.4,7.66-2.4,7.66S38.75,7,39.6,9.58s-2.91,7-2.91,7,3.53-2.93,4.56,0-2.58,7.39-2.58,7.39,4-4.59,4.14-1.29-1.71,3.13-.47,7.1-1.61,4.1.71,6.77-1,3.27-.2,5.2-2.67,4.89-1,5.6,9.7-6.69,14.82-12.59,16.84-24.62,18-23.12.13,4.61-1,6.26c2.06,1.08,1.19,5-.85,6.87,2,2.25,1,3.86-2.34,7.3,1.29,3.61-2.21,5.42-3.24,6.37,1.14,3-2.54,5.36-2.54,5.36a4.91,4.91,0,0,1-2.54,4.19,5,5,0,0,1-3.4,4.6,6.59,6.59,0,0,1-3.62,4.33c.4,2.05-6.26,11.7-13.64,14.59-2.57,1.71-1.72,1.3,1,5.87S54.68,96.65,53.55,97.79s-4.35-3.1-8.12-5.2S33.6,87.26,30.58,85c-3.26,2.73-2.58-2.44-6.74-5.42S12.62,74.69,9.08,68.71,2.35,61,.49,60,2.57,59.4,4,58.68s2.56-2.37,5.17-2.77A7.67,7.67,0,0,1,15.94,58Z"/><path class="cls-1" d="M70,427.63c-2.08.27-6.07.28-8.28.93-1.55.45-3.35,2.83-4.4,5.21-.46.87-4.62,1-11.33,2.08-8.33,1.35-18.2,5.73-13.18,8.4,14.22,7.56,5.67,10.78,12.59,16.46,4.88,4,30.36-3.75,26.39,38.48,16.6-17.2,12.12-46.11,1.94-56C78,442.21,75.51,427.71,70,427.63Z"/><path class="cls-1" d="M103.05,158.44a15.2,15.2,0,0,0-6.26-2.75c-1.17-.26-8.8-2.62-9.87-3.82s-3.58-9.71-4.14-9.13c-.93.93-.82,7.41-1.26,8.45s1.3,4-.14,4.4c-.31.09-.46.18-.57.21-1.44-1.94-2.93-2.81-4.14-1.4-.8.92-8.61-5.36-8.61-5.36s-8.45-4.14-9.43-2.27c-.39.7,5.67,13.08,6.18,14.33s1.21,2.65,1.58,3.9a39.62,39.62,0,0,1,.8,5c.14,1.45.52,2.53,1.92,2.87,5.86,1.42,10.89.43,14.59-2.57.82-.66.78-2.05.74-4.07-.11-1.61,0-3.29,1.25-3.58,2.78-.67,9.17,4.32,11.46,4.69s5.62-1,12.65.91c.45.14.67-.88.22-2.26S104.88,159.86,103.05,158.44Z"/><path class="cls-1" d="M101.42,187.78a15.33,15.33,0,0,0-5.68-4.73c-1.19-.6-1.86-2.46-2.44-4.05s-1.27-2.88-2.07-2.4c-1.3.77-2.62-.74-3.45.26-.49.57-.45,1.72-.58,2.74s-.4,1.9-1.24,1.92a6.82,6.82,0,0,0-.69.07c-.63-2.44-2-3.73-3.75-2.56-1.16.76-3.65.92-6.58,1-3.63.12-6.25-2-7.93-.37-.6.6-.71,1.81-.59,3.21s.37,3,.33,4.36c0,1.91-.83,3.77-1.15,5.3s-.3,2.75,1.07,3.5c5.73,3.17,11.4,3.65,16.35,1.58,1.09-.45,1.53-1.92,2.19-4.06.53-1.72,1.41-3.44,2.8-3.41,3.18.09,1.36,4.36,3.75,5.41,1.15.51,2-.37,3.48-.91s3.44-.74,6.84,1.34c.45.28,1-.73,1.06-2.35a9.64,9.64,0,0,0-.27-2.77A8.93,8.93,0,0,0,101.42,187.78Z"/><path class="cls-1" d="M99.63,212.87a15.38,15.38,0,0,0-5.23-5.41c-2.31-1.53-1.77-7.69-3.62-7-1.51.56-2.56-1.11-3.63-.25-1.23,1-1,4.52-2.71,4.32-.38,0-.58,0-.72,0-.38-2.51-1.43-4-3.52-3.09-1.38.59-3.94.39-7,.08-3.84-.41-6-2.95-8.15-1.54-1.59,1-.86,4.84-1.37,7.61-.89,3.92-3.94,7.14-1.28,9,5.44,4,11.3,5,16.81,3.59,1.21-.32,1.83-1.73,2.77-3.77.75-1.64,1.87-3.23,3.31-3,3.3.52.9,4.49,3.26,5.83s4.1-3.13,10.68,1.73C100.08,221.6,101.88,217.24,99.63,212.87Z"/><path class="cls-1" d="M95.78,237a15.88,15.88,0,0,0-4.9-5.8c-2.26-1.74-1.11-7.74-3.1-7.27-1.63.38-2.56-1.4-3.75-.68-1.37.82-1.43,4.38-3.24,4-.39-.08-.6-.08-.74-.11-.15-2.54-1.1-4.13-3.36-3.47-1.49.43-4.14-.06-7.31-.72-4-.83-6-3.69-8.33-2.47-1.77.89-1.34,4.89-2.25,7.72-1.25,4-4.7,7.07-2.1,9.19A20.93,20.93,0,0,0,74,242.28c1.29-.22,2-1.57,3.18-3.52.91-1.58,2.19-3.06,3.67-2.7,3.39.82.6,4.53,3,6.06s4.49-2.69,11,2.64C95.64,245.47,97.81,241.44,95.78,237Z"/><path class="cls-1" d="M90,260.07a17,17,0,0,0-4.88-6c-2.26-1.86-.75-7.7-2.84-7.39-1.72.25-2.59-1.59-3.87-1-1.47.71-1.72,4.25-3.58,3.74-.4-.11-.63-.12-.77-.16,0-2.55-.92-4.22-3.31-3.72-1.57.32-4.31-.35-7.57-1.23-4.07-1.11-6-4.19-8.53-3.1-1.88.81-1.76,5-2.78,7.84-1.48,4-5.24,7.08-2.6,9.35a22.59,22.59,0,0,0,17.88,5.73c1.32-.17,2.17-1.49,3.41-3.38,1-1.53,2.4-2.94,3.92-2.5,3.51,1,.47,4.54,2.89,6.18s4.76-2.4,11.38,3.18C89.58,268.37,91.93,264.57,90,260.07Z"/><path class="cls-1" d="M83.52,282.49a18.08,18.08,0,0,0-5-6.13c-2.34-1.93-.68-7.67-2.86-7.46-1.78.18-2.66-1.7-4-1.13-1.55.65-1.87,4.18-3.8,3.6-.42-.13-.65-.15-.8-.2,0-2.55-.88-4.26-3.38-3.86-1.64.27-4.48-.52-7.86-1.53-4.23-1.27-6.17-4.5-8.82-3.47-2,.77-2,5.06-3.1,7.94-1.52,4-5.51,7.12-2.76,9.49a24.33,24.33,0,0,0,18.62,6.15c1.38-.13,2.27-1.43,3.58-3.3,1-1.5,2.5-2.88,4.08-2.39,3.65,1.12.48,4.56,3,6.26s5-2.25,11.85,3.47C83.14,290.67,85.59,287.06,83.52,282.49Z"/><path class="cls-1" d="M77,304.55a19.1,19.1,0,0,0-5.31-6.19c-2.45-2-.78-7.68-3-7.51-1.85.13-2.78-1.76-4.17-1.22-1.6.62-1.91,4.15-3.92,3.53-.43-.13-.68-.16-.83-.21,0-2.56-.95-4.3-3.55-3.95-1.71.24-4.66-.6-8.19-1.69-4.4-1.35-6.45-4.66-9.2-3.66-2,.73-2,5.11-3.17,8-1.57,4.11-5.64,7.15-2.76,9.6a25.61,25.61,0,0,0,19.46,6.36c1.42-.13,2.33-1.42,3.66-3.29,1.07-1.49,2.55-2.85,4.21-2.34,3.8,1.16.56,4.57,3.21,6.3s5.11-2.18,12.36,3.62C76.68,312.69,79.17,309.09,77,304.55Z"/><path class="cls-1" d="M71.05,325.76a22,22,0,0,0-5.94-5.83c-2.64-1.88-1.13-7.43-3.47-7.29-1.91.11-2.94-1.76-4.36-1.24-1.64.61-1.84,4.12-4,3.53-.46-.13-.71-.15-.88-.2-.07-2.55-1.12-4.32-3.8-3.94-1.77.26-4.88-.56-8.58-1.63-4.62-1.31-6.8-4.78-9.66-3.66-2.14.84-2.1,5.5-3.11,8.7-.72,2.24-2.17,4.21-2.92,6s-1,3.3.61,4.47a27.54,27.54,0,0,0,20.78,5.07c1.48-.23,2.29-1.58,3.49-3.51.94-1.56,2.45-3,4.19-2.52,4,1,.93,4.48,3.87,6s5-2.27,13.15,2.9C71.54,333.31,73.65,330,71.05,325.76Z"/><path class="cls-1" d="M67.12,346.23A25,25,0,0,0,60.35,341c-3-1.64-2.05-7.22-4.41-6.93-2,.24-3.21-1.54-4.65-.93-1.69.71-1.43,4.23-3.7,3.79-.49-.09-.75-.1-.93-.13-.37-2.54-1.65-4.25-4.39-3.67-1.8.39-5.1-.2-9-1-4.94-1-7.57-4.38-10.4-3-1.06.52-1.45,2-1.68,3.74s-.34,3.75-.66,5.47c-.5,2.39-1.7,4.6-2.35,6.51s-.6,3.55,1.19,4.58a29.3,29.3,0,0,0,22.15,2.91c1.51-.37,2.12-1.81,3.15-3.84.86-1.63,2.2-3.16,4.07-2.87,4.31.65,1.44,4.33,4.7,5.58,1.54.59,2.77-.1,4.75-.37s4.66-.09,9.22,2C68.51,353.39,70.41,350.06,67.12,346.23Z"/><path class="cls-1" d="M65.86,365.89a29.31,29.31,0,0,0-7.76-4.09c-1.65-.61-2.45-2.28-3.15-3.74s-1.14-2.72-2.38-2.45c-2,.45-3.53-1.18-4.93-.42-.79.43-1.09,1.51-1.4,2.46s-.72,1.76-1.91,1.68c-.52,0-.8,0-1,0-.8-2.47-2.27-4-5.06-3.15-1.83.59-5.3.38-9.49,0-5.27-.41-8.33-3.58-11.15-1.83-1,.66-1.21,2.27-1.2,4.13s.21,4,.11,5.81c-.13,2.58-1,5.09-1.36,7.2s0,3.87,2.05,4.65c8.61,3.28,16.6,2.06,23.29-.73,1.48-.62,1.86-2.14,2.54-4.28.62-1.74,1.75-3.43,3.72-3.4,4.56,0,2.17,4,5.79,4.7,1.69.33,2.83-.52,4.8-1.05s4.77-.72,9.84.49c.69.14,1.24-.56,1.29-1.73S67.87,367.46,65.86,365.89Z"/><path class="cls-1" d="M68.17,383.5a44.6,44.6,0,0,0-8.8-2c-1.79-.24-2.92-1.63-3.91-2.87s-1.71-2.34-3-1.88c-2,.77-3.84-.53-5.14.43-1.57,1.14,0,4.3-2.55,4.6-.54.06-.82.14-1,.16-1.27-2.26-3.18-3.55-5.81-2.18-1.73.92-5.34,1.35-9.7,1.78-5.43.58-9.37-2.26-11.8.14-.9.91-.77,2.65-.36,4.63.21,1,.46,2,.74,3.08a27.19,27.19,0,0,1,.78,3.11c.47,2.78.13,5.65.54,8s1.07,4.14,3.34,4.46a28.38,28.38,0,0,0,13.06-1.21,35.67,35.67,0,0,0,10.13-5.48c1.33-1,1.4-2.58,1.54-4.82a5.6,5.6,0,0,1,.7-2.56,3.33,3.33,0,0,1,2.18-1.53c4.51-.94,3.3,3.22,7,3,1.77-.12,2.74-1.19,4.62-2.15s4.68-1.78,10-2a1.22,1.22,0,0,0,.92-1.71C71.37,385.61,70.52,384.41,68.17,383.5Z"/><path class="cls-1" d="M73.49,404.78a54.58,54.58,0,0,0-9.13-.12,5.07,5.07,0,0,1-2.51-.56A8.07,8.07,0,0,1,60,402.68c-1.12-1-2.09-1.92-3.27-1.34-1.92,1-4,0-5.22,1.07-1.33,1.27.4,4.23-2,4.86-.54.14-.81.26-1,.31a5.86,5.86,0,0,0-2.77-2.1,3.91,3.91,0,0,0-3.46.73c-1.67,1.17-5.31,2.12-9.72,3.15a24.2,24.2,0,0,1-7.29.28c-2.07-.11-3.72-.07-4.8,1.42-.76,1.1-.51,3,.45,5.1s2.12,4.44,2.84,6.52c1.19,2.9,1.68,6,2.49,8.51,1,2.41,2.26,4.13,4.67,4,10.14-.6,16.83-6,21.87-11.7,1.1-1.26.78-2.82.38-5-.17-1.84.22-3.82,2.18-4.61,4.48-1.85,3.8,2.49,7.62,1.4,1.76-.52,2.51-1.72,4.21-3s4.37-2.62,9.66-4.16a1.14,1.14,0,0,0,.72-.65,1.36,1.36,0,0,0-.06-1C77.13,405.68,76,405,73.49,404.78Z"/></svg>